PathFileType	4	(X/Y/Z)	55_2_86_p0_0-275.trc
DataRate	CameraRate	NumFrames	NumMarkers	Units	OrigDataRate	OrigDataStartFrame	OrigNumFrames
52.0	52.0	4	27	m	52.0	0	276
Frame#	Time	RHip			RKnee			RAnkle			RBigToe			RSmallToe			RHeel			LHip			LKnee			LAnkle			LBigToe			LSmallToe			LHeel			Neck			Head			Nose			RShoulder			RElbow			RWrist			RThumb			RIndex			RPinky			LShoulder			LElbow			LWrist			LThumb			LIndex			LPinky			
		X1	Y1	Z1	X2	Y2	Z2	X3	Y3	Z3	X4	Y4	Z4	X5	Y5	Z5	X6	Y6	Z6	X7	Y7	Z7	X8	Y8	Z8	X9	Y9	Z9	X10	Y10	Z10	X11	Y11	Z11	X12	Y12	Z12	X13	Y13	Z13	X14	Y14	Z14	X15	Y15	Z15	X16	Y16	Z16	X17	Y17	Z17	X18	Y18	Z18	X19	Y19	Z19	X20	Y20	Z20	X21	Y21	Z21	X22	Y22	Z22	X23	Y23	Z23	X24	Y24	Z24	X25	Y25	Z25	X26	Y26	Z26	X27	Y27	Z27	
0	0.0	0.34065379503248044	0.550257711038014	0.7867875149393682	0.33372010606095664	0.5883176892368653	1.215508365607924	0.31528515766591203	0.6276430452705256	1.6383218006763565	0.2899916823888303	0.43176273286079825	1.6439503998993716	0.35351060262733824	0.4486392354176393	1.6524684440195443	0.302153704006571	0.6814754745941952	1.6949054633065848	0.1301087765634515	0.5711576228172578	0.8004089141624677	0.12954945013018446	0.5973219301277698	1.1986113229045003	0.14007739668840044	0.6107759167104373	1.6075106107418335	0.12518226139432878	0.3930377590239467	1.6059877278948584	0.07723989264112678	0.46429526171916535	1.6445098181369355	0.1571338575628416	0.6588277939247394	1.6720235826537344	0.22716770166420996	0.5830934523793557	0.21636318930250922	0.2235476546120987	0.5445663150229134	-0.0434932637763018	0.20686057863410695	0.46867120501691834	0.08190255489942083	0.3776682780547614	0.5477204818705415	0.29730345508779	0.392337917485855	0.49091200817045105	0.5632831584147585	0.26443273046070764	0.38947413891554156	0.7330236359511796	0.21419596715591094	0.4133432692812369	0.8520200811632215	0.2000815475978582	0.415382111144545	0.8538639707174943	0.20145691241011196	0.41476858721473336	0.8543294443328341	0.07659519989761214	0.6123370946790829	0.30904405384915346	0.06001980145507984	0.520884698482691	0.5499671144107231	0.15619676163484633	0.38801368355736876	0.7299982715347905	0.22481082434446706	0.3967713222286391	0.8226668272851012	0.22771608540492025	0.3917262021412119	0.8509817703117658	0.19846082841199503	0.400506331352583	0.8453824915840932
1	0.019230769230769232	0.3387590845424471	0.5233261686879717	0.7765979349386419	0.32762914829221734	0.5744706802087574	1.204050076393301	0.31596412305688276	0.6278158691034598	1.63339470298597	0.2909482000526758	0.43177970093730933	1.638766723158214	0.34593633480736635	0.4537103762571314	1.6560282497163459	0.3023700480240512	0.6810703407018402	1.6944911062034345	0.1374782742174302	0.5567637407515503	0.7900279136091523	0.13269438862567082	0.6096674191136662	1.2090271327479891	0.13958822528922057	0.6123539460380432	1.603599336658035	0.12412028308886525	0.4049574203433147	1.6143039704399924	0.07373133844313746	0.463784673520883	1.6403902920085378	0.15685393097101102	0.6585836594881281	1.6722062129010447	0.23050863650501516	0.5698582385367085	0.21410126168656035	0.22347762229827434	0.5445657238567861	-0.04334022863887326	0.20683259883467373	0.46873014687251396	0.08180196917872916	0.3734907962386347	0.5466133037912344	0.2972153648872568	0.38968439897651685	0.5055093801828255	0.5677182207665029	0.2568713218918752	0.3922642094014952	0.733970405250022	0.2030297323062668	0.41133795886704955	0.850019629927891	0.20302503201228134	0.4130927865597892	0.8522418313142275	0.1985941558663459	0.4098028034313436	0.8533434746683357	0.0800694527436531	0.5981241820183658	0.3022706617578293	0.060407804039555986	0.5211577412527653	0.5464159065196371	0.1520658683236375	0.37858786996062926	0.7259112766388524	0.22272464105910228	0.39485551261516766	0.8140845766855632	0.23026948204971082	0.40031975774989825	0.8581800172478762	0.19811704429232532	0.4019042742455267	0.8511343826808234
2	0.038461538461538464	0.3379544649207255	0.5224253717158855	0.7720926456553431	0.32693357574793813	0.5743155558516376	1.2090786844298276	0.31276185452942995	0.644684317137864	1.6442835354083225	0.29090637837277816	0.4316012878873632	1.6385293331298822	0.3460588613202087	0.45380228700029335	1.6559236432424174	0.30234096947934674	0.6808979200863488	1.6944404796593648	0.13740922517867277	0.5566746185518621	0.789481321537586	0.1326589470217615	0.6095911055259734	1.2090010479278632	0.13960914636423805	0.6125094892991836	1.6037149294369253	0.12419487493247237	0.4051842543066899	1.6143878401933618	0.07733588281886317	0.4769089760971034	1.649162722137762	0.156862447963378	0.6587156093342947	1.6724549302359344	0.2305655240034407	0.569946205657874	0.21409548130547645	0.22350375755294902	0.5446490333776484	-0.043455997407607694	0.20690003626540032	0.46878631274002364	0.08175900884214252	0.37767879899930934	0.5476582938154817	0.29731014967862696	0.389706000305199	0.5053359196298901	0.5676145289876019	0.2592726000201236	0.3783619042120048	0.7254830552541103	0.2023761904621014	0.4110848869026993	0.8497844076940351	0.20315123874916	0.4121962098935613	0.8550066428957436	0.19909625103444897	0.4084058272814043	0.8569865680037227	0.08008359691077921	0.5981297654441865	0.30226670575544745	0.06027025995503612	0.5219003412708317	0.5428252170602726	0.1520152741981128	0.37853917552378946	0.7260073600334764	0.22243340416622462	0.3937610191685484	0.8173083975971123	0.23023595673068567	0.3994088442086914	0.8617502827685884	0.1952117744095545	0.4008490376081561	0.8588310085873033
3	0.057692307692307696	0.33515091502905137	0.5367856981780574	0.777355856263781	0.3276468514377059	0.5742944707141878	1.2043759025784597	0.31591423922986195	0.6277561914451577	1.6334785049437361	0.2909734599303584	0.43168002055324567	1.6386097136002136	0.3461687718264575	0.45394798950370957	1.6559871941291366	0.3022782345624612	0.681015375558443	1.6945805081323468	0.1375037167154063	0.5564891313159043	0.7895544949860653	0.1326532317271727	0.6095446915569428	1.208979636369572	0.13965369211941453	0.6124433698172245	1.6037375686861433	0.12428659053905	0.40504128406315276	1.6142861339314685	0.0726728474478288	0.4640408570252717	1.6443686194148885	0.15704367548267217	0.6588934616580594	1.6728110103620775	0.23057601361954036	0.5699189767384825	0.21411488822014385	0.2234860308161306	0.5445596933151274	-0.04342704472552578	0.20687297082179226	0.4688066872945952	0.08178163384927593	0.3776565598746955	0.5475555444209598	0.2972798169281806	0.38900596266415566	0.5047680669312834	0.5638509854098201	0.25557831919501767	0.3670805491104112	0.7254281160911852	0.202618091337646	0.4113714982476419	0.84981301395451	0.1995757456233067	0.4258096995710001	0.8578906174475078	0.19869865753068233	0.40971310749053297	0.8580584922845538	0.08012495177547778	0.5982034802806194	0.3022860563947591	0.060474132352816394	0.5210351128473598	0.5462819865589343	0.148508544274502	0.39134042495306537	0.7308671406527686	0.22304812092597825	0.3958103813086179	0.8183509254131744	0.2298972937521777	0.400390389300106	0.8581768293401492	0.1941657585560384	0.3985641315213785	0.8533623582721882
